<svg xmlns="http://www.w3.org/2000/svg" viewBox="0 0 705.93 520.4"><defs><style>.cls-1,.cls-3{fill:#bcbec0;}.cls-2{fill:#7393b3;stroke:#7393b3;}.cls-2,.cls-3,.cls-4,.cls-5{stroke-miterlimit:10;}.cls-3,.cls-4,.cls-5{stroke:#bcbec0;}.cls-4{fill:#546978;}.cls-5,.cls-7{fill:#708090;}.cls-6{fill:#36454f;}</style></defs><g id="Layer_2" data-name="Layer 2"><polygon class="cls-1" points="328.4 66.99 134.84 66.99 38.06 234.62 134.84 402.25 328.4 402.25 425.18 234.62 328.4 66.99"/><polygon class="cls-1" points="532.99 239.7 433.85 239.7 384.28 325.56 433.85 411.42 532.99 411.42 582.56 325.56 532.99 239.7"/><polygon class="cls-1" points="547.56 32.74 433.8 32.74 376.92 131.26 433.8 229.78 547.56 229.78 604.44 131.26 547.56 32.74"/></g><g id="Layer_4" data-name="Layer 4"><path class="cls-2" d="M319.31,505.39V402.25H134.47L37.69,234.63l87.75-152-.19-.11h.23L131,73H53.82A8.05,8.05,0,1,0,54,82.54h60.47L32.17,225.06l-.11-.19-5.53,9.57L129,411.82H309.74v93.57a8,8,0,1,0,9.57,0ZM47.44,81.94a4.08,4.08,0,1,1,4.07-4.07A4.08,4.08,0,0,1,47.44,81.94Zm267.08,434a4.08,4.08,0,1,1,4.08-4.08A4.08,4.08,0,0,1,314.52,515.93Z"/><path class="cls-2" d="M338.44,454.21V404.86L434,239.28H659.55a8,8,0,1,0,0-9.57H587l-13.91-24.09,42.69-74-5.52-9.56,0,0L558.68,32.8h0l-5.52-9.57H428.26l-46,79.67L338.18,26.55a8,8,0,1,0-8.35,4.66L382.24,122l5.39-9.33,0,0L433.79,32.8H547.63l57.07,98.85-42.57,73.74.4.24-.34.2L576,229.71H433.69l-.77-.44L333.73,57.46h-.21v0H15A8.05,8.05,0,1,0,15,67H328.18l97,168v.49L329,402l1,.58h-1.16v51.6a8.06,8.06,0,1,0,9.57,0ZM666,230.42a4.08,4.08,0,1,1-4.07,4.08A4.08,4.08,0,0,1,666,230.42ZM330.85,27.31a4.08,4.08,0,1,1,4.08-4.08A4.08,4.08,0,0,1,330.85,27.31Zm-322.3,39a4.08,4.08,0,1,1,4.08-4.08A4.08,4.08,0,0,1,8.55,66.29ZM333.66,464.75a4.08,4.08,0,1,1,4.07-4.08A4.08,4.08,0,0,1,333.66,464.75Z"/><path class="cls-2" d="M697.38,246.42a8,8,0,0,0-6.46,3.27H598.11l-.09-.14H587L606.87,284,533.31,411.42H433.69l-38.5-66.67,36.95-64a8,8,0,1,0-8.25-4.85l-39.61,68.62.19.34-.19.12,43.84,75.94h.23V421H538.93l5.52-9.57h-.1l68-117.85.05.09,5.53-9.57-14.34-24.83h87.29a8,8,0,1,0,6.46-12.84ZM431.3,268.67a4.08,4.08,0,1,1-4.08,4.08A4.08,4.08,0,0,1,431.3,268.67Zm266.08-10.12a4.08,4.08,0,1,1,4.08-4.08A4.08,4.08,0,0,1,697.38,258.55Z"/><polygon class="cls-3" points="622.02 178.79 595.72 178.79 582.56 201.57 595.72 224.35 622.02 224.35 635.17 201.57 622.02 178.79"/><polygon class="cls-4" points="378.65 354.65 351.16 402.25 406.13 402.25 378.65 354.65"/><polygon class="cls-4" points="382.28 83.65 409.76 36.04 354.79 36.04 382.28 83.65"/><polygon class="cls-4" points="98.73 91.03 43.76 91.03 71.25 138.63 98.73 91.03"/><polygon class="cls-4" points="646.58 316.5 674.06 268.89 619.09 268.89 646.58 316.5"/><polygon class="cls-4" points="324.01 48.61 296.53 1 269.05 48.61 324.01 48.61"/><polygon class="cls-5" points="607.54 317.77 637.7 317.77 622.62 291.65 607.54 317.77"/><polygon class="cls-5" points="631.5 224.19 661.65 224.19 646.58 198.07 631.5 224.19"/><polygon class="cls-5" points="599.08 172.4 629.24 172.4 614.16 146.28 599.08 172.4"/><polygon class="cls-5" points="243.13 21.34 258.2 47.45 273.28 21.34 243.13 21.34"/><polygon class="cls-5" points="218.61 49.35 248.76 49.35 233.69 23.23 218.61 49.35"/><polygon class="cls-5" points="36.44 147.98 66.59 147.98 51.51 121.86 36.44 147.98"/><polygon class="cls-5" points="32.36 155.3 47.44 181.42 62.52 155.3 32.36 155.3"/></g><g id="Layer_3" data-name="Layer 3"><polygon class="cls-6" points="116.6 339.95 225.58 151.19 190.84 91.03 81.87 279.78 116.6 339.95"/><polygon class="cls-6" points="116.16 340.42 116.29 340.49 116.41 340.27 116.16 340.42"/><polygon class="cls-6" points="380.49 280.03 267.11 83.65 197.64 83.65 345.76 340.19 380.49 280.03"/><polygon class="cls-7" points="606.52 283.59 493.14 87.21 423.67 87.21 571.78 343.76 606.52 283.59"/><polygon class="cls-7" points="417.37 95.39 351.45 209.58 386.18 269.75 452.11 155.56 417.37 95.39"/><polygon class="cls-7" points="261.8 211.92 201.45 211.92 166.71 272.08 296.53 272.08 261.8 211.92"/></g></svg>